<?xml version="1.0" standalone="no"?>
<!DOCTYPE svg PUBLIC "-//W3C//DTD SVG 20010904//EN"
 "http://www.w3.org/TR/2001/REC-SVG-20010904/DTD/svg10.dtd">
<svg version="1.0" xmlns="http://www.w3.org/2000/svg"
 width="360.000000pt" height="360.000000pt" viewBox="0 0 360.000000 360.000000"
 preserveAspectRatio="xMidYMid meet">

<g transform="translate(0.000000,360.000000) scale(0.100000,-0.100000)"
fill="#000000" stroke="none">
<path d="M1605 3259 c-532 -73 -961 -428 -1130 -932 -49 -146 -68 -267 -68
-432 1 -363 128 -682 377 -943 206 -216 465 -356 756 -408 129 -24 353 -23
480 1 494 93 900 441 1054 905 58 175 71 254 71 445 -1 193 -15 285 -72 449
-119 343 -363 621 -691 785 -80 40 -243 95 -347 116 -97 20 -333 28 -430 14z
m-173 -799 l-3 -300 321 0 320 0 0 300 0 300 170 0 170 0 0 -805 0 -805 -170
0 -170 0 0 365 0 365 -320 0 -320 0 0 -365 0 -365 -165 0 -165 0 0 805 0 805
168 0 167 0 -3 -300z"/>
</g>
</svg>
